# xmcd CD database file
#
# Track frame offsets:
#	187
#	22617
#	48332
#	66802
#	89412
#	108667
#	128317
#	146155
#	169170
#	190232
#
# Disc length: 2787 seconds
#
# Revision: 0
# Processed by: cddbd v1.5.1PL2 Copyright (c) Steve Scherf et al.
# Submitted via: CDex 1.51
#
DISCID=800ae10a
DTITLE=村井麻里子 - helou
DYEAR=1900
DGENRE=J-Pop
TTITLE0=今夜の夢
TTITLE1=BEST FRIEND
TTITLE2=スプリンターになりたかった
TTITLE3=言いだしかねて
TTITLE4=ZA ZA ZA
TTITLE5=Remember
TTITLE6=おしえて60’S
TTITLE7=インディゴ・ブルーの街
TTITLE8=シンフォニー
TTITLE9=何もなかったように
EXTD=
EXTT0=
EXTT1=
EXTT2=
EXTT3=
EXTT4=
EXTT5=
EXTT6=
EXTT7=
EXTT8=
EXTT9=
PLAYORDER=
